<svg fill="#DF4FF2" xmlns="http://www.w3.org/2000/svg" xmlns:xlink="http://www.w3.org/1999/xlink" version="1.1" x="0px" y="0px" viewBox="0 0 100 125" style="enable-background:new 0 0 100 100;" xml:space="preserve"><style type="text/css">
</style><path d="M51.69,63.82c4.19,0,7.98-1.7,10.73-4.44c2.75-2.75,4.44-6.54,4.44-10.73s-1.69-7.98-4.44-10.73  c-2.75-2.74-6.54-4.44-10.73-4.44s-7.98,1.7-10.72,4.44c-2.75,2.75-4.44,6.54-4.44,10.73s1.7,7.98,4.44,10.73  C43.71,62.12,47.5,63.82,51.69,63.82z M47.36,40.93c0.76-0.61,1.71-1.07,2.76-1.3v-1.86c0-0.87,0.7-1.57,1.57-1.57  c0.87,0,1.57,0.7,1.57,1.57v1.86c0.89,0.2,1.72,0.56,2.41,1.04c1.18,0.82,2,1.99,2.25,3.33c0.16,0.85-0.41,1.67-1.26,1.83  c-0.85,0.15-1.67-0.41-1.83-1.26c-0.09-0.5-0.44-0.97-0.95-1.32c-0.58-0.4-1.35-0.65-2.2-0.65c-0.94,0-1.78,0.3-2.37,0.77  c-0.49,0.39-0.8,0.92-0.8,1.47c0,0.55,0.31,1.07,0.8,1.47c0.59,0.48,1.43,0.77,2.37,0.77h0.04c1.63,0.02,3.13,0.58,4.24,1.47  c1.22,0.99,1.98,2.37,1.98,3.91s-0.76,2.93-1.98,3.91c-0.76,0.61-1.71,1.07-2.76,1.3v1.86c0,0.87-0.71,1.57-1.57,1.57  c-0.87,0-1.57-0.7-1.57-1.57v-1.86c-0.89-0.2-1.72-0.56-2.41-1.04c-1.18-0.82-2.01-1.99-2.25-3.33c-0.15-0.85,0.41-1.67,1.26-1.83  c0.85-0.15,1.67,0.41,1.82,1.26c0.09,0.5,0.44,0.97,0.95,1.32c0.58,0.4,1.35,0.65,2.2,0.65c0.94,0,1.78-0.3,2.37-0.77  c0.49-0.39,0.8-0.92,0.8-1.47c0-0.55-0.31-1.07-0.8-1.47c-0.59-0.48-1.43-0.77-2.37-0.77H51.6c-1.63-0.02-3.13-0.58-4.24-1.47  c-1.22-0.99-1.98-2.37-1.98-3.91C45.38,43.3,46.14,41.91,47.36,40.93z M84.83,48.65c0,1.37-0.65,2.54-1.8,3.27l-2.67,1.68  c-1.71,1.08-2.3,3.28-1.36,5.07l1.47,2.81c0.64,1.21,0.6,2.55-0.08,3.74c-0.69,1.18-1.84,1.87-3.2,1.92l-3.15,0.13  c-2.02,0.08-3.63,1.69-3.71,3.71l-0.13,3.17c-0.05,1.36-0.75,2.51-1.93,3.2c-1.18,0.68-2.53,0.71-3.73,0.07l-2.8-1.47  c-1.79-0.94-3.98-0.36-5.07,1.35l-1.7,2.69c-0.73,1.15-1.91,1.8-3.27,1.8c-0.48,0-0.93-0.08-1.34-0.23  c-0.09-0.47-0.24-0.93-0.42-1.35c0.74-1.02,1.18-2.28,1.18-3.64c0-3.43-2.8-6.22-6.22-6.22h-6.26c0.5-2.98,0.42-6.35-0.31-9.19  c0.14,0.15,0.28,0.3,0.43,0.44c3.32,3.32,7.89,5.37,12.95,5.37c5.06,0,9.64-2.05,12.95-5.37C67.95,58.29,70,53.71,70,48.65  c0-5.05-2.05-9.64-5.37-12.95c-3.31-3.32-7.89-5.37-12.95-5.37c-5.05,0-9.63,2.05-12.95,5.37c-3.31,3.31-5.36,7.89-5.36,12.95  c0,2.36,0.44,4.61,1.26,6.68c-3.91-2.46-9.08,0.54-8.42,6.1c0.04,2.36-0.75,3.89-1.9,5.18c-0.54-0.33-0.99-0.79-1.33-1.38  c-0.69-1.19-0.71-2.53-0.08-3.74l1.47-2.79c0.94-1.79,0.36-3.98-1.35-5.07l-2.69-1.7c-1.15-0.73-1.8-1.91-1.8-3.27  c0-1.37,0.65-2.54,1.81-3.27l2.66-1.68c1.71-1.08,2.3-3.28,1.36-5.07l-1.47-2.81c-0.64-1.21-0.61-2.55,0.08-3.73  c0.69-1.18,1.83-1.88,3.2-1.93l3.15-0.13c2.02-0.08,3.63-1.69,3.72-3.71l0.13-3.18c0.05-1.36,0.75-2.51,1.93-3.2  c1.18-0.68,2.52-0.71,3.73-0.07l2.79,1.47c1.79,0.94,3.99,0.36,5.07-1.35l1.7-2.69c0.73-1.15,1.9-1.8,3.27-1.8  c1.36,0,2.54,0.65,3.27,1.8l1.68,2.67c1.08,1.71,3.28,2.3,5.07,1.36l2.82-1.47c1.21-0.63,2.55-0.6,3.73,0.08  c1.18,0.69,1.87,1.83,1.93,3.2l0.12,3.15c0.08,2.02,1.69,3.63,3.71,3.72l3.17,0.13c1.36,0.05,2.52,0.75,3.2,1.93  c0.68,1.18,0.71,2.52,0.07,3.73l-1.47,2.79c-0.94,1.79-0.36,3.98,1.35,5.07l2.69,1.7C84.19,46.11,84.83,47.28,84.83,48.65z   M44.9,79.64h-0.65c1.69,0,3.07,1.38,3.07,3.07c0,1.69-1.39,3.07-3.07,3.07h-0.41c1.69,0,3.07,1.38,3.07,3.07  c0,1.69-1.38,3.07-3.07,3.07h-1.21c1.69,0,3.07,1.38,3.07,3.07c0,1.69-1.38,3.07-3.07,3.07H24.46c-0.51,0-0.94-0.08-1.41-0.26  l-2.66-1c-0.1-0.04-0.21-0.07-0.31-0.1V74.72c0.48-0.25,0.9-0.59,1.27-1.04c2.94-3.58,8.23-5.18,8.02-12.49  c-0.52-3.6,2.92-4.94,4.83-1.91c2.15,3.4,2.07,10.71,0.17,14.21H44.9c1.69,0,3.07,1.38,3.07,3.07  C47.97,78.26,46.59,79.64,44.9,79.64z M16.94,74.24v23.24c0,1.11-0.91,2.02-2.02,2.02H8.41c-1.1,0-2.01-0.91-2.01-2.02V74.24  c0-1.11,0.91-2.01,2.01-2.01h6.51C16.03,72.23,16.94,73.14,16.94,74.24z M50.12,7.36V2.07c0-0.87,0.7-1.57,1.57-1.57  c0.87,0,1.57,0.71,1.57,1.57v5.29c0,0.87-0.7,1.57-1.57,1.57C50.83,8.93,50.12,8.23,50.12,7.36z M70.98,12.11l2.64-4.58  c0.43-0.75,1.39-1,2.14-0.58c0.75,0.43,1.01,1.39,0.58,2.14l-2.64,4.58c-0.43,0.75-1.39,1.01-2.14,0.58  C70.81,13.82,70.55,12.86,70.98,12.11z M92.82,26.72l-4.58,2.65c-0.75,0.43-1.71,0.18-2.14-0.58c-0.43-0.75-0.18-1.7,0.57-2.14  l4.58-2.65c0.75-0.43,1.71-0.18,2.14,0.57C93.82,25.33,93.57,26.29,92.82,26.72z M27.04,9.1c-0.43-0.75-0.18-1.71,0.57-2.14  c0.75-0.43,1.71-0.18,2.14,0.57l2.65,4.58c0.43,0.75,0.18,1.71-0.57,2.14c-0.75,0.43-1.71,0.18-2.14-0.57L27.04,9.1z M17.29,28.79  c-0.43,0.75-1.39,1.01-2.14,0.58l-4.58-2.65c-0.75-0.43-1.01-1.39-0.58-2.14c0.44-0.75,1.4-1,2.14-0.57l4.58,2.65  C17.47,27.09,17.72,28.05,17.29,28.79z"/></svg>